<mxfile host="app.diagrams.net" modified="2023-09-05T03:24:11.435Z" agent="Mozilla/5.0 (Windows NT 10.0; Win64; x64; rv:109.0) Gecko/20100101 Firefox/117.0" etag="7AJtAqo-omGXy5OsUO3f" version="21.7.2" type="github">
  <diagram name="Page-1" id="Ibva7xswk7MlykJWga5B">
    <mxGraphModel dx="1032" dy="1129" grid="1" gridSize="10" guides="1" tooltips="1" connect="1" arrows="1" fold="1" page="1" pageScale="1" pageWidth="850" pageHeight="1100" math="0" shadow="0">
      <root>
        <mxCell id="0" />
        <mxCell id="1" parent="0" />
        <mxCell id="hKEHkd_DOBsOIQRfh8Hp-2" value="&lt;font style=&quot;font-size: 18px;&quot;&gt;Payment Gateway&lt;/font&gt;" style="shape=umlActor;verticalLabelPosition=bottom;verticalAlign=top;html=1;outlineConnect=0;" parent="1" vertex="1">
          <mxGeometry x="720" y="215" width="50" height="110" as="geometry" />
        </mxCell>
        <mxCell id="hKEHkd_DOBsOIQRfh8Hp-3" value="" style="rounded=0;whiteSpace=wrap;html=1;rotation=90;shadow=1;movable=0;resizable=0;rotatable=0;deletable=0;editable=0;locked=1;connectable=0;" parent="1" vertex="1">
          <mxGeometry x="18.25" y="337.25" width="814.5" height="390" as="geometry" />
        </mxCell>
        <mxCell id="hKEHkd_DOBsOIQRfh8Hp-4" value="&lt;font style=&quot;font-size: 18px;&quot;&gt;Customer&lt;/font&gt;" style="shape=umlActor;verticalLabelPosition=bottom;verticalAlign=top;html=1;outlineConnect=0;" parent="1" vertex="1">
          <mxGeometry x="90" y="495" width="50" height="110" as="geometry" />
        </mxCell>
        <mxCell id="hKEHkd_DOBsOIQRfh8Hp-10" value="&lt;font style=&quot;font-size: 24px;&quot;&gt;Order Management System&lt;/font&gt;" style="text;html=1;strokeColor=none;fillColor=none;align=center;verticalAlign=middle;whiteSpace=wrap;rounded=0;fontStyle=1" parent="1" vertex="1">
          <mxGeometry x="260" y="160" width="340" height="30" as="geometry" />
        </mxCell>
        <mxCell id="hKEHkd_DOBsOIQRfh8Hp-13" value="&lt;font style=&quot;font-size: 14px;&quot;&gt;&lt;b&gt;Apply Discount Code&lt;br&gt;&lt;/b&gt;&lt;/font&gt;" style="ellipse;whiteSpace=wrap;html=1;" parent="1" vertex="1">
          <mxGeometry x="240" y="390" width="142.25" height="80" as="geometry" />
        </mxCell>
        <mxCell id="hKEHkd_DOBsOIQRfh8Hp-14" value="&lt;font style=&quot;font-size: 14px;&quot;&gt;&lt;b&gt;Place an Order&lt;/b&gt;&lt;/font&gt;" style="ellipse;whiteSpace=wrap;html=1;" parent="1" vertex="1">
          <mxGeometry x="313" y="230" width="224.5" height="80" as="geometry" />
        </mxCell>
        <mxCell id="hKEHkd_DOBsOIQRfh8Hp-27" value="" style="endArrow=block;endSize=16;endFill=0;html=1;rounded=0;" parent="1" edge="1">
          <mxGeometry width="160" relative="1" as="geometry">
            <mxPoint x="115" y="570" as="sourcePoint" />
            <mxPoint x="115" y="570" as="targetPoint" />
          </mxGeometry>
        </mxCell>
        <mxCell id="hKEHkd_DOBsOIQRfh8Hp-37" value="&lt;font style=&quot;font-size: 14px;&quot;&gt;&lt;b&gt;Track an Order&lt;/b&gt;&lt;/font&gt;" style="ellipse;whiteSpace=wrap;html=1;" parent="1" vertex="1">
          <mxGeometry x="313.25" y="510" width="224.5" height="80" as="geometry" />
        </mxCell>
        <mxCell id="hKEHkd_DOBsOIQRfh8Hp-38" value="&lt;b&gt;&lt;font style=&quot;font-size: 14px;&quot;&gt;Return Product&lt;/font&gt;&lt;/b&gt;" style="ellipse;whiteSpace=wrap;html=1;" parent="1" vertex="1">
          <mxGeometry x="317.75" y="660" width="224.5" height="80" as="geometry" />
        </mxCell>
        <mxCell id="hKEHkd_DOBsOIQRfh8Hp-40" value="&lt;font style=&quot;font-size: 18px;&quot;&gt;Admin&lt;/font&gt;" style="shape=umlActor;verticalLabelPosition=bottom;verticalAlign=top;html=1;outlineConnect=0;" parent="1" vertex="1">
          <mxGeometry x="720" y="680" width="50" height="110" as="geometry" />
        </mxCell>
        <mxCell id="hKEHkd_DOBsOIQRfh8Hp-57" value="" style="endArrow=none;html=1;rounded=0;entryX=0.5;entryY=0.5;entryDx=0;entryDy=0;entryPerimeter=0;exitX=1;exitY=0.5;exitDx=0;exitDy=0;" parent="1" source="hKEHkd_DOBsOIQRfh8Hp-37" target="hKEHkd_DOBsOIQRfh8Hp-40" edge="1">
          <mxGeometry width="50" height="50" relative="1" as="geometry">
            <mxPoint x="537.75" y="730" as="sourcePoint" />
            <mxPoint x="470" y="480" as="targetPoint" />
          </mxGeometry>
        </mxCell>
        <mxCell id="hKEHkd_DOBsOIQRfh8Hp-59" value="" style="endArrow=none;html=1;rounded=0;entryX=0.5;entryY=0.5;entryDx=0;entryDy=0;entryPerimeter=0;exitX=1;exitY=0.5;exitDx=0;exitDy=0;" parent="1" source="hKEHkd_DOBsOIQRfh8Hp-14" target="hKEHkd_DOBsOIQRfh8Hp-2" edge="1">
          <mxGeometry width="50" height="50" relative="1" as="geometry">
            <mxPoint x="512" y="396.94" as="sourcePoint" />
            <mxPoint x="720" y="291.94" as="targetPoint" />
          </mxGeometry>
        </mxCell>
        <mxCell id="hKEHkd_DOBsOIQRfh8Hp-60" value="" style="endArrow=none;html=1;rounded=0;entryX=0;entryY=0.5;entryDx=0;entryDy=0;exitX=0.5;exitY=0.5;exitDx=0;exitDy=0;exitPerimeter=0;" parent="1" source="hKEHkd_DOBsOIQRfh8Hp-4" target="hKEHkd_DOBsOIQRfh8Hp-14" edge="1">
          <mxGeometry width="50" height="50" relative="1" as="geometry">
            <mxPoint x="120" y="415" as="sourcePoint" />
            <mxPoint x="323" y="414.58000000000004" as="targetPoint" />
          </mxGeometry>
        </mxCell>
        <mxCell id="hKEHkd_DOBsOIQRfh8Hp-62" value="" style="endArrow=none;html=1;rounded=0;entryX=0;entryY=0.5;entryDx=0;entryDy=0;exitX=0.5;exitY=0.5;exitDx=0;exitDy=0;exitPerimeter=0;" parent="1" source="hKEHkd_DOBsOIQRfh8Hp-4" target="hKEHkd_DOBsOIQRfh8Hp-37" edge="1">
          <mxGeometry width="50" height="50" relative="1" as="geometry">
            <mxPoint x="135" y="435" as="sourcePoint" />
            <mxPoint x="323" y="390" as="targetPoint" />
          </mxGeometry>
        </mxCell>
        <mxCell id="hKEHkd_DOBsOIQRfh8Hp-63" value="" style="endArrow=none;html=1;rounded=0;entryX=0;entryY=0.5;entryDx=0;entryDy=0;exitX=0.5;exitY=0.5;exitDx=0;exitDy=0;exitPerimeter=0;" parent="1" source="hKEHkd_DOBsOIQRfh8Hp-4" target="hKEHkd_DOBsOIQRfh8Hp-38" edge="1">
          <mxGeometry width="50" height="50" relative="1" as="geometry">
            <mxPoint x="145" y="445" as="sourcePoint" />
            <mxPoint x="323" y="500" as="targetPoint" />
          </mxGeometry>
        </mxCell>
        <mxCell id="kJCWrpa8u9t749q43092-3" value="&lt;font style=&quot;font-size: 12px;&quot;&gt;&lt;b&gt;&amp;lt;&amp;lt;extend&amp;gt;&amp;gt;&lt;/b&gt;&lt;/font&gt;" style="html=1;verticalAlign=bottom;labelBackgroundColor=none;endArrow=open;endFill=0;dashed=1;rounded=0;exitX=0.5;exitY=0;exitDx=0;exitDy=0;entryX=0.5;entryY=1;entryDx=0;entryDy=0;" edge="1" parent="1" source="hKEHkd_DOBsOIQRfh8Hp-13" target="hKEHkd_DOBsOIQRfh8Hp-14">
          <mxGeometry x="0.1258" y="-16" width="160" relative="1" as="geometry">
            <mxPoint x="400" y="350" as="sourcePoint" />
            <mxPoint x="560" y="350" as="targetPoint" />
            <mxPoint as="offset" />
          </mxGeometry>
        </mxCell>
        <mxCell id="kJCWrpa8u9t749q43092-5" value="&lt;font style=&quot;font-size: 14px;&quot;&gt;&lt;strong&gt;Validate Discount&lt;/strong&gt;&lt;/font&gt;" style="ellipse;whiteSpace=wrap;html=1;" vertex="1" parent="1">
          <mxGeometry x="470" y="390" width="142.25" height="80" as="geometry" />
        </mxCell>
        <mxCell id="kJCWrpa8u9t749q43092-6" value="&lt;font style=&quot;font-size: 12px;&quot;&gt;&lt;b&gt;&amp;lt;&amp;lt;include&amp;gt;&amp;gt;&lt;/b&gt;&lt;/font&gt;" style="html=1;verticalAlign=bottom;labelBackgroundColor=none;endArrow=open;endFill=0;dashed=1;rounded=0;exitX=1;exitY=0.5;exitDx=0;exitDy=0;entryX=0;entryY=0.5;entryDx=0;entryDy=0;" edge="1" parent="1" source="hKEHkd_DOBsOIQRfh8Hp-13" target="kJCWrpa8u9t749q43092-5">
          <mxGeometry width="160" relative="1" as="geometry">
            <mxPoint x="341" y="380" as="sourcePoint" />
            <mxPoint x="440" y="320" as="targetPoint" />
            <mxPoint as="offset" />
          </mxGeometry>
        </mxCell>
        <mxCell id="kJCWrpa8u9t749q43092-7" value="" style="endArrow=none;html=1;rounded=0;entryX=0.5;entryY=0.5;entryDx=0;entryDy=0;entryPerimeter=0;exitX=1;exitY=0.5;exitDx=0;exitDy=0;" edge="1" parent="1" source="hKEHkd_DOBsOIQRfh8Hp-38" target="hKEHkd_DOBsOIQRfh8Hp-40">
          <mxGeometry width="50" height="50" relative="1" as="geometry">
            <mxPoint x="552" y="530" as="sourcePoint" />
            <mxPoint x="755" y="530" as="targetPoint" />
          </mxGeometry>
        </mxCell>
        <mxCell id="kJCWrpa8u9t749q43092-8" value="&lt;font style=&quot;font-size: 18px;&quot;&gt;Courier&lt;/font&gt;" style="shape=umlActor;verticalLabelPosition=bottom;verticalAlign=top;html=1;outlineConnect=0;" vertex="1" parent="1">
          <mxGeometry x="720" y="450" width="50" height="110" as="geometry" />
        </mxCell>
        <mxCell id="kJCWrpa8u9t749q43092-10" value="" style="endArrow=none;html=1;rounded=0;entryX=0.5;entryY=0.5;entryDx=0;entryDy=0;entryPerimeter=0;exitX=1;exitY=0.5;exitDx=0;exitDy=0;" edge="1" parent="1" source="hKEHkd_DOBsOIQRfh8Hp-37" target="kJCWrpa8u9t749q43092-8">
          <mxGeometry width="50" height="50" relative="1" as="geometry">
            <mxPoint x="540" y="520" as="sourcePoint" />
            <mxPoint x="783" y="685" as="targetPoint" />
          </mxGeometry>
        </mxCell>
        <mxCell id="kJCWrpa8u9t749q43092-15" value="&lt;font style=&quot;font-size: 14px;&quot;&gt;&lt;b&gt;Refund Product&lt;/b&gt;&lt;/font&gt;" style="ellipse;whiteSpace=wrap;html=1;" vertex="1" parent="1">
          <mxGeometry x="270" y="810" width="142.25" height="80" as="geometry" />
        </mxCell>
        <mxCell id="kJCWrpa8u9t749q43092-17" value="&lt;font style=&quot;font-size: 14px;&quot;&gt;&lt;b&gt;Warranty Claim&lt;/b&gt;&lt;/font&gt;" style="ellipse;whiteSpace=wrap;html=1;" vertex="1" parent="1">
          <mxGeometry x="440" y="810" width="142.25" height="80" as="geometry" />
        </mxCell>
        <mxCell id="kJCWrpa8u9t749q43092-18" value="" style="endArrow=block;endSize=16;endFill=0;html=1;rounded=0;exitX=0.5;exitY=0;exitDx=0;exitDy=0;entryX=0.5;entryY=1;entryDx=0;entryDy=0;" edge="1" parent="1" source="kJCWrpa8u9t749q43092-15" target="hKEHkd_DOBsOIQRfh8Hp-38">
          <mxGeometry x="0.2447" y="-14" width="160" relative="1" as="geometry">
            <mxPoint x="280" y="610" as="sourcePoint" />
            <mxPoint x="440" y="610" as="targetPoint" />
            <Array as="points">
              <mxPoint x="341" y="800" />
              <mxPoint x="430" y="800" />
            </Array>
            <mxPoint x="-4" y="10" as="offset" />
          </mxGeometry>
        </mxCell>
        <mxCell id="kJCWrpa8u9t749q43092-19" value="" style="endArrow=none;html=1;rounded=0;entryX=0.5;entryY=0;entryDx=0;entryDy=0;" edge="1" parent="1" target="kJCWrpa8u9t749q43092-17">
          <mxGeometry width="50" height="50" relative="1" as="geometry">
            <mxPoint x="430" y="800" as="sourcePoint" />
            <mxPoint x="755" y="745" as="targetPoint" />
            <Array as="points">
              <mxPoint x="511" y="800" />
            </Array>
          </mxGeometry>
        </mxCell>
      </root>
    </mxGraphModel>
  </diagram>
</mxfile>
